<svg xmlns="http://www.w3.org/2000/svg" viewBox="0 0 1200 800"><rect width="1200" height="800" fill="#edf2f8"/><g fill="none" stroke="#a7bdd7" stroke-width="4"><path d="M230 230h370v170h340M230 570h370V400"/><circle cx="600" cy="400" r="80" fill="#162a45"/></g><g fill="#fff" stroke="#a7bdd7" stroke-width="3"><rect x="110" y="140" width="260" height="180" rx="24"/><rect x="110" y="480" width="260" height="180" rx="24"/><rect x="830" y="310" width="260" height="180" rx="24"/></g><g stroke="#527aa6" stroke-width="12" stroke-linecap="round"><path d="M165 200h145M165 240h100M165 540h145M165 580h100M885 370h145M885 410h100"/></g><path d="M550 370h35l15 12 15-12h35v60h-35l-15 12-15-12h-35z" fill="#eaf1fb"/><path d="M600 382v48" stroke="#527aa6" stroke-width="4"/></svg>
